<svg xmlns="http://www.w3.org/2000/svg" viewBox="0 0 500 500"><g id="freepik--background-simple--inject-63"><path d="M331,399.79s41.43-2.59,69.91-53.51,23.31-128.6-12.08-171.76-90.62-57.83-143.27-44c-25.66,6.73-42.76,24.19-57.55,45.22-12.87,18.33-27.35,36-46.85,47.59C121.87,234.79,102,244,92.29,265.78,68.57,318.89,85.9,380.69,142,401.52,202.41,424,303.39,411.88,331,399.79Z" style="fill:#FF725E"></path><path d="M331,399.79s41.43-2.59,69.91-53.51,23.31-128.6-12.08-171.76-90.62-57.83-143.27-44c-25.66,6.73-42.76,24.19-57.55,45.22-12.87,18.33-27.35,36-46.85,47.59C121.87,234.79,102,244,92.29,265.78,68.57,318.89,85.9,380.69,142,401.52,202.41,424,303.39,411.88,331,399.79Z" style="fill:#fff;opacity:0.8"></path></g><g id="freepik--Hearts--inject-63"><path d="M233,156.26a9.48,9.48,0,0,0-18-4.11,9.48,9.48,0,0,0-18,4.11c0,6,6.7,11.64,11.33,14.67a40.16,40.16,0,0,1,7.1,5.61,26.12,26.12,0,0,1,7.49-6.36C227.49,167.75,233,161.81,233,156.26Z" style="fill:#FF725E"></path><path d="M201,153.27c-1.57,3.27-.54,7.9,2.75,10.61l4.95,4.08" style="fill:none;stroke:#fff;stroke-linecap:round;stroke-linejoin:round"></path><path d="M206.71,149.53a7.59,7.59,0,0,0-3.74,1.36" style="fill:none;stroke:#fff;stroke-linecap:round;stroke-linejoin:round"></path><path d="M217.13,151.89s1.18-3.35,6.89-3.74" style="fill:none;stroke:#fff;stroke-linecap:round;stroke-linejoin:round"></path><path d="M342.14,188.18a6.79,6.79,0,0,0-12.9-3,6.79,6.79,0,0,0-12.9,3c0,4.28,4.8,8.33,8.11,10.49a29.5,29.5,0,0,1,5.09,4,18.6,18.6,0,0,1,5.35-4.55C338.22,196.4,342.14,192.15,342.14,188.18Z" style="fill:#FF725E"></path><path d="M319.27,186a6.56,6.56,0,0,0,2,7.6l3.54,2.92" style="fill:none;stroke:#fff;stroke-linecap:round;stroke-linejoin:round"></path><path d="M323.35,183.36a5.31,5.31,0,0,0-2.68,1" style="fill:none;stroke:#fff;stroke-linecap:round;stroke-linejoin:round"></path><path d="M330.81,185.05s.84-2.4,4.92-2.68" style="fill:none;stroke:#fff;stroke-linecap:round;stroke-linejoin:round"></path><path d="M188.54,196.45a4.79,4.79,0,0,0-9.1-2.07,4.79,4.79,0,0,0-9.1,2.07c0,3,3.39,5.88,5.72,7.4a20.48,20.48,0,0,1,3.59,2.84,13.26,13.26,0,0,1,3.78-3.21C185.77,202.25,188.54,199.25,188.54,196.45Z" style="fill:#FF725E"></path><path d="M172.41,194.94a4.62,4.62,0,0,0,1.39,5.36l2.49,2.06" style="fill:none;stroke:#fff;stroke-linecap:round;stroke-linejoin:round"></path><path d="M175.28,193.05a3.77,3.77,0,0,0-1.88.69" style="fill:none;stroke:#fff;stroke-linecap:round;stroke-linejoin:round"></path><path d="M180.54,194.24s.6-1.68,3.48-1.88" style="fill:none;stroke:#fff;stroke-linecap:round;stroke-linejoin:round"></path><path d="M289.66,203.88a4.79,4.79,0,0,0-9.1-2.08,4.78,4.78,0,0,0-9.09,2.08c0,3,3.38,5.87,5.72,7.4a20.33,20.33,0,0,1,3.58,2.83,13.26,13.26,0,0,1,3.78-3.21C286.9,209.68,289.66,206.67,289.66,203.88Z" style="fill:#FF725E"></path><path d="M273.53,202.36a4.63,4.63,0,0,0,1.39,5.36l2.5,2.06" style="fill:none;stroke:#fff;stroke-linecap:round;stroke-linejoin:round"></path><path d="M276.41,200.48a3.72,3.72,0,0,0-1.89.69" style="fill:none;stroke:#fff;stroke-linecap:round;stroke-linejoin:round"></path><path d="M281.67,201.67s.59-1.69,3.47-1.89" style="fill:none;stroke:#fff;stroke-linecap:round;stroke-linejoin:round"></path></g><g id="freepik--Clouds--inject-63"><path d="M379.51,347.92c-10.73-5.85-15.6-1-19.5-5.85s10.72-17.55-18.53-30.23c0,0-2-27.3-41.93-28.28s-29.26,27.31-40,34.13-13.65-3.9-24.38,2.93-5.85,20.48-14.63,22.43-20.47-8.78-31.2-1.95-10.73,12.67-15.6,12.67-14.63-3.9-20.48,0-12.68,8.78-12.68,8.78H387.31S390.23,353.77,379.51,347.92Z" style="fill:#fff"></path><path d="M402.7,209.85c-3.72-2-5.41-.34-6.76-2s3.72-6.08-6.42-10.47c0,0-.67-9.46-14.53-9.8s-10.14,9.46-13.85,11.82-4.73-1.35-8.45,1-2,7.1-5.07,7.77-7.1-3-10.81-.67-3.72,4.39-5.41,4.39-5.07-1.35-7.1,0-4.39,3-4.39,3H405.4S406.42,211.88,402.7,209.85Z" style="fill:#fff"></path><path d="M188.12,143.65c-3.72-2-5.4-.34-6.76-2s3.72-6.08-6.42-10.47c0,0-.67-9.46-14.53-9.8s-10.14,9.46-13.85,11.82-4.73-1.35-8.45,1-2,7.1-5.07,7.77-7.1-3-10.81-.67-3.72,4.39-5.41,4.39-5.07-1.35-7.1,0-4.39,3-4.39,3h85.5S191.84,145.68,188.12,143.65Z" style="fill:#FF725E"></path><path d="M188.12,143.65c-3.72-2-5.4-.34-6.76-2s3.72-6.08-6.42-10.47c0,0-.67-9.46-14.53-9.8s-10.14,9.46-13.85,11.82-4.73-1.35-8.45,1-2,7.1-5.07,7.77-7.1-3-10.81-.67-3.72,4.39-5.41,4.39-5.07-1.35-7.1,0-4.39,3-4.39,3h85.5S191.84,145.68,188.12,143.65Z" style="fill:#fff;opacity:0.7000000000000001"></path><path d="M145.24,304.07c-2.75-1.5-4-.25-5-1.5s2.75-4.51-4.76-7.76c0,0-.5-7-10.76-7.26s-7.51,7-10.27,8.76-3.5-1-6.26.75-1.5,5.26-3.75,5.76-5.26-2.26-8-.5-2.76,3.25-4,3.25-3.75-1-5.26,0-3.25,2.25-3.25,2.25h63.34S148,305.57,145.24,304.07Z" style="fill:#fff"></path></g><g id="freepik--character-2--inject-63"><path d="M283.46,371.88s5.06-2.72,5.88-.81.55,15.33-.27,15.33-6.15-11.31-6.15-11.31Z" style="fill:#FF725E;stroke:#263238;stroke-linecap:round;stroke-linejoin:round"></path><polygon points="258.34 370.01 283.45 371.88 282.92 375.09 250.05 380.7 258.34 370.01" style="fill:#263238;stroke:#263238;stroke-linecap:round;stroke-linejoin:round"></polygon><path d="M271.34,317.82s-14.07,27.07-18.08,37.5-8.82,24.31-3.21,25.38,27.26-39.81,27.26-39.81l3.21,4s-13.63,34.21-11.23,41.16,27.3,42.58,27.3,42.58l3.47-2.4L282.92,381s13.36-38.21,14.43-47a120.38,120.38,0,0,0,1.07-12.56l-26.19-6.95Z" style="fill:#263238;stroke:#263238;stroke-linecap:round;stroke-linejoin:round"></path><line x1="277.31" y1="340.89" x2="270.38" y2="334.52" style="fill:none;stroke:#fff;stroke-linecap:round;stroke-linejoin:round;stroke-width:0.75px"></line><path d="M296.59,428.63s-8.44,12.06-8.18,12.86S303,431.84,303,431.84l-2.94-5.61Z" style="fill:#FF725E;stroke:#263238;stroke-linecap:round;stroke-linejoin:round"></path><path d="M282.21,262.49a12.08,12.08,0,0,1,2.17,5.13,52.07,52.07,0,0,1,.78,5.9l8.86-.93-.62-16Z" style="fill:#fff;stroke:#263238;stroke-linecap:round;stroke-linejoin:round"></path><path d="M282.36,243.06s-6.84-.78-8.55-7.15,5.75-9.79,8.55-8.86,2,3.11,3,4,1.39-2.64,5.12-2.64a3.47,3.47,0,0,1,3.42,4.82c-.62,1.24.16,2,4.2,2.64s6.37,4.2,5.91,10.1-3.11,8.71-6.06,11-5,2.49-5.91,0-3.27-6.06-3.58-8.71,1.87-4,0-4.66A27.42,27.42,0,0,0,282.36,243.06Z" style="fill:#263238;stroke:#263238;stroke-linecap:round;stroke-linejoin:round"></path><path d="M281,240.26s-.77,5.44-2.79,7.15-4.36,1.4-3,3.27a14.2,14.2,0,0,1,1.87,3.1,81.18,81.18,0,0,0,.15,8.24c.31,2.49,4,1.4,6.22,1.4s8.08-2.33,10.41-6.06c0,0,3.89-3.42,4.2-5.91s-1.24-3.42-2.95-2.33a6.38,6.38,0,0,0-2.33,3.27s.31-.78-1.71-2.8.62-4.35,1.24-4.82-.16-3.58-4.2-4A68.79,68.79,0,0,0,281,240.26Z" style="fill:#fff;stroke:#263238;stroke-linecap:round;stroke-linejoin:round"></path><path d="M282.59,248.29c-.29.8-.8,1.34-1.15,1.22s-.4-.87-.11-1.67.8-1.34,1.14-1.21S282.87,247.5,282.59,248.29Z" style="fill:#263238"></path><path d="M279.78,255.37a4.55,4.55,0,0,0,5.35-.58" style="fill:none;stroke:#263238;stroke-linecap:round;stroke-linejoin:round"></path><path d="M281.86,244.05s2.49-1,2.87,2.49" style="fill:none;stroke:#263238;stroke-linecap:round;stroke-linejoin:round"></path><path d="M304.48,218.23s-3.57.18-3.57,1.25.18,4.63,1.25,4.81.89-1.07,1.6-2.67A9.41,9.41,0,0,0,304.48,218.23Z" style="fill:#fff;stroke:#263238;stroke-linecap:round;stroke-linejoin:round"></path><path d="M272.41,279.51s.53,12.3.53,20.49a128.63,128.63,0,0,1-1.6,17.82s.71,1.07,4.46,3,17.28,5.53,20.48,5,5.35-21.2,7.13-27.79,3-23.87,3-23.87,30.28-14.07,31.17-16.74-23-30.65-23-30.65l-2.85,2,11.76,26.73s-15.86,6.23-23.34,8.9S282,269,276.51,273.28,272.41,279.51,272.41,279.51Z" style="fill:#FF725E;stroke:#263238;stroke-linecap:round;stroke-linejoin:round"></path><path d="M299.63,282.13s-3.19,32.18-17.55,38.29" style="fill:none;stroke:#263238;stroke-linecap:round;stroke-linejoin:round;stroke-width:0.75px"></path><path d="M301.23,303.14a33.71,33.71,0,0,1-10.64,12" style="fill:none;stroke:#263238;stroke-linecap:round;stroke-linejoin:round;stroke-width:0.75px"></path><path d="M276.23,297.55a25.81,25.81,0,0,0,10.37-13s-5.05,6.12-8.51,6.12" style="fill:none;stroke:#263238;stroke-linecap:round;stroke-linejoin:round;stroke-width:0.75px"></path><path d="M308.27,185.05V226s3.15,9.05,7.24,12.26,11.09-1.17,15.17,6.42-2,9.34-.87,13.72,13.13,1.46,12.84,8.75-13.72,5.55-14,12.56,7,1.16,8.17,3.21,1.17,3.79-5.25,7.3-5.25,5.83-5.25,5.83" style="fill:none;stroke:#263238;stroke-linecap:round;stroke-linejoin:round"></path><path d="M314.63,226.78s-3.56-8.9-4.27-9.26-4.46,0-5.88.36-1.61,2.13-1.43,4.27.71,4.28,2,4.63a19,19,0,0,0,4.28.18l2.49,2.32Z" style="fill:#fff;stroke:#263238;stroke-linecap:round;stroke-linejoin:round"></path><path d="M276,285.48s-3.13-.91-4-5.19-.14-9.73,6.65-13.49,30.68-9.95,30.68-9.95L307.7,220.1l4-.31s11,40.6,10.85,41.87-40.65,21.46-40.65,21.46" style="fill:#FF725E;stroke:#263238;stroke-linecap:round;stroke-linejoin:round"></path><path d="M307.7,220.1s-2.8-7-3-9.48,3.58-6.22,4.2-6.53,2.33-.93,2.49.78a5.34,5.34,0,0,1-.31,2.64,5.06,5.06,0,0,1,1.55,3.73,16.4,16.4,0,0,1-1.55,5l.62,3.57Z" style="fill:#fff;stroke:#263238;stroke-linecap:round;stroke-linejoin:round"></path><path d="M346.22,142.39a20.32,20.32,0,0,0-38.63-8.82A20.31,20.31,0,0,0,269,142.39c0,12.82,14.36,24.94,24.29,31.43,10.42,6.81,15.23,12,15.23,12s6.81-8.82,16-13.63C334.48,167,346.22,154.27,346.22,142.39Z" style="fill:#FF725E"></path><path d="M276.59,136.13c-3.38,7-1.17,16.94,5.88,22.74l10.61,8.76" style="fill:none;stroke:#fff;stroke-linecap:round;stroke-linejoin:round;stroke-width:2px"></path><path d="M288.79,128.11a16.06,16.06,0,0,0-8,2.93" style="fill:none;stroke:#fff;stroke-linecap:round;stroke-linejoin:round;stroke-width:2px"></path><path d="M311.13,133.17s2.52-7.16,14.74-8" style="fill:none;stroke:#fff;stroke-linecap:round;stroke-linejoin:round;stroke-width:2px"></path></g><g id="freepik--character-1--inject-63"><path d="M286.91,82.71a20.31,20.31,0,0,0-38.62-8.81,20.32,20.32,0,0,0-38.63,8.81c0,12.83,14.37,24.94,24.29,31.43,10.42,6.81,15.23,12,15.23,12s6.82-8.82,16-13.63C275.18,107.34,286.91,94.59,286.91,82.71Z" style="fill:#FF725E"></path><path d="M165.77,315.88s-7,4.8-4.75,5,5.75-3,5.75-3-3.75,2.25-2,3,4.5-2.75,4.5-2.75-3.5,4.25-1,3.25,4-4.5,4-4.5S171.27,314.63,165.77,315.88Z" style="fill:#fff;stroke:#263238;stroke-linecap:round;stroke-linejoin:round"></path><path d="M213,213.63s-5-7-14.75-3.25-10.75,16.5-9.75,20-4.5,4.5-14.75,8.25-10.75,18.5-5,23-1.75,4-1.5,14.5,14.5,18,25.5,14.75S203,281.38,205,272.63s-.75-14,4-19.25,15.25-18.25,16-27-2.25-12.25-6-12.25A30.48,30.48,0,0,1,213,213.63Z" style="fill:#263238;stroke:#263238;stroke-linecap:round;stroke-linejoin:round"></path><path d="M175.7,261.11a8.5,8.5,0,0,0,3.2.66" style="fill:none;stroke:#fff;stroke-linecap:round;stroke-linejoin:round;stroke-width:0.75px"></path><path d="M214.83,217.27s-1.86-4.18-6.26-1.63-4.4,16.23-10,19.94-16.68.69-22.25,6.72c-4.14,4.49-6.23,13-2.89,17.1" style="fill:none;stroke:#fff;stroke-linecap:round;stroke-linejoin:round;stroke-width:0.75px"></path><path d="M175.85,274.57a3.06,3.06,0,0,0-.42,3.42" style="fill:none;stroke:#fff;stroke-linecap:round;stroke-linejoin:round;stroke-width:0.75px"></path><path d="M185.39,244.61s-10.43,4.64-5.56,11.13,13.21,4.4,12.75,11.36c-.31,4.65-9.25,4.32-14.22,6" style="fill:none;stroke:#fff;stroke-linecap:round;stroke-linejoin:round;stroke-width:0.75px"></path><path d="M193,232.77a13.14,13.14,0,0,1-3,.72" style="fill:none;stroke:#fff;stroke-linecap:round;stroke-linejoin:round;stroke-width:0.75px"></path><path d="M207.41,212.86s-5.79-2.78-8.11,3,1.16,9.27-1.39,13.21a8.37,8.37,0,0,1-1.78,1.95" style="fill:none;stroke:#fff;stroke-linecap:round;stroke-linejoin:round;stroke-width:0.75px"></path><path d="M168.07,394.65s-4.21,6.21-4.21,10,1.6,6,4.78,4.39c3.83-1.92,4.8-11.65,4.8-11.65S170.46,391.26,168.07,394.65Z" style="fill:#FF725E;stroke:#263238;stroke-miterlimit:10"></path><path d="M200,339.13l-.25,14.75s-10,5.5-14.25,11-9.5,16.75-12.25,21.75-7.75,10.25-8,15,3,6,5.5,2.5,3.75-13.5,6.5-16.25,17.25-15.25,24.5-21,9.75-9.5,11.25-13.5,4-11.25,4-11.25S207.27,334.88,200,339.13Z" style="fill:#fff;stroke:#263238;stroke-miterlimit:10"></path><path d="M218.45,413.73s-3.72,6.35-3.28,9.2,2,3.41,4.6,2.19c3.72-1.75,4.36-8.77,4.82-14C225,406.06,218.45,413.73,218.45,413.73Z" style="fill:#FF725E;stroke:#263238;stroke-miterlimit:10"></path><path d="M221,343.63s-4.75,19.5-4.5,26.25,5.66,33.21,5.66,36-4.94,7.7-6.31,13.2,3,6.33,5.5,1.38,3.85-12.65,4.12-17.05,2.53-26.49,2.53-31v-8.25l8-19.25S226.77,332.13,221,343.63Z" style="fill:#fff;stroke:#263238;stroke-miterlimit:10"></path><path d="M254.27,182.81s1.63-1.05,1.63.15.2,3.44-1.63,3.29S254.27,182.81,254.27,182.81Z" style="fill:#fff;stroke:#263238;stroke-linecap:round;stroke-linejoin:round"></path><path d="M248.77,326.88c-2.75-6-8.75-44.25-8.75-45.75s-2-28-2-28,12.25-16.5,13.5-20.75-2-37.5-2-37.5,4-6.19,4-8.19-5.13-4.34-7.38-4.34-.58,12.78-.58,12.78l-1.75,34.25s-7.75,12.75-10,15-13.5,5.25-13.5,5.25l-2.25-4.5-7.5,1s3.75,6.25,4,7.5-7.25,4.75-10.75,7.5-6.5,5-7.25,9.5-5.5,23.75-5.5,23.75c-3.25,3.8-6.42,7.66-9.56,11.56-2.4,3-5.36,5.36-7.92,8.19h0s-5.25,1.25-7.75,1.75-8.75,2.25-8,3,6.25-1,7.75-1.25,2.25.75,5.5.75a6.06,6.06,0,0,0,3.66-1.52l.4.31c7.21-6.84,18.69-13.54,22.69-20.54,1.94-3.39,8-25,8-25l6.5,13.5s-5.75,15.5-13.75,27.5-16.5,18-14.25,21.75,8.5,0,11.25,3.75,4,7.75,10.75,7.75,9.75-2.5,14.75,1,15.5,7.25,20,4.5,8-5.25,11-7.25S251.52,332.88,248.77,326.88Z" style="fill:#fff;stroke:#263238;stroke-linecap:round;stroke-linejoin:round"></path><path d="M249.15,125.69v57.95s1.21,5.67,4,8.51,8.91,8.5,5.27,12.56-6.49,11.75-2.43,13,14.58-6.89,14.58,0-13.37,9.73-12.56,13.78,6.48,2,6.48,2" style="fill:none;stroke:#263238;stroke-linecap:round;stroke-linejoin:round"></path><path d="M174.49,313.76a33,33,0,0,0-5.86,3.6c-1.92,1.7-6.48,3.19-5.4,3.72s7.22-2.25,7.22-2.25,3.71,1,5.32-3.2" style="fill:#fff;stroke:#263238;stroke-linecap:round;stroke-linejoin:round"></path><path d="M245.45,189.73s-.87-6.52-.87-7.38,1.95-2.18,3-4.13,1.95-.87,2.17.22-2.17,3.69-2.17,3.69,2.61,4.56.87,7.17" style="fill:#fff;stroke:#263238;stroke-linecap:round;stroke-linejoin:round"></path><path d="M252.62,182.56s1.73-1.52,1.73.22.22,5-1.73,4.78S252.62,182.56,252.62,182.56Z" style="fill:#fff;stroke:#263238;stroke-linecap:round;stroke-linejoin:round"></path><path d="M251.09,181.26s1.74-1.52,1.74.22.22,5-1.74,4.77S251.09,181.26,251.09,181.26Z" style="fill:#fff;stroke:#263238;stroke-linecap:round;stroke-linejoin:round"></path><path d="M249.36,180s1.73-1.52,1.73.21.22,5-1.73,4.78S249.36,180,249.36,180Z" style="fill:#fff;stroke:#263238;stroke-linecap:round;stroke-linejoin:round"></path><path d="M216,221.13s4.75,10.25,6.25,14.25-1.5,9-3.25,11-5.66,1.77-7.66,1.27-5.54-5.18-5.54-5.18-.3,1.91-3,.91-2.5-6-.75-6.25a21.65,21.65,0,0,1,2.75-.25s2.75-.75,4.5-5.5S212.52,222.38,216,221.13Z" style="fill:#fff;stroke:#263238;stroke-linecap:round;stroke-linejoin:round"></path><path d="M208.86,234.6a2.72,2.72,0,0,1,2.86-2.5" style="fill:none;stroke:#263238;stroke-linecap:round;stroke-linejoin:round"></path><path d="M215.47,230.31s.72-2.33,2.86-1.61" style="fill:none;stroke:#263238;stroke-linecap:round;stroke-linejoin:round"></path><path d="M212.79,226s1.79-2.33,4.11-.72" style="fill:none;stroke:#263238;stroke-linecap:round;stroke-linejoin:round"></path><path d="M213.5,230.85s.54,1.78,1.61,2.14,2,0,2,.54a5.51,5.51,0,0,1-.89,1.79" style="fill:none;stroke:#263238;stroke-linecap:round;stroke-linejoin:round"></path><path d="M217.08,237.82a7.39,7.39,0,0,1-3,1.43,9.13,9.13,0,0,1-3.4,0s1.79,3.93,4.47,3S217.08,237.82,217.08,237.82Z" style="fill:none;stroke:#263238;stroke-linecap:round;stroke-linejoin:round"></path><path d="M252,344.13c3-2-.5-11.25-3.25-17.25S240,282.63,240,281.13c0-.94-.78-11.67-1.37-19.57l-2.63-.93-7.86-13.47c-1,.39-2.14.75-3.16,1.07l5,12.65-13.25,4.75L211,256.54l-2.9,1.73,4.4,11.11-5,5.9,4.74,9.85s-5.75,15.5-13.75,27.5-16.5,18-14.25,21.75,8.5,0,11.25,3.75,4,7.75,10.75,7.75,9.75-2.5,14.75,1,15.5,7.25,20,4.5S249,346.13,252,344.13Z" style="fill:#FF725E;stroke:#263238;stroke-miterlimit:10"></path><path d="M218.11,285.43a65.69,65.69,0,0,1-3.84,20.75" style="fill:none;stroke:#263238;stroke-linecap:round;stroke-linejoin:round"></path><path d="M219.65,285.69a35.8,35.8,0,0,1-.52,12.55" style="fill:none;stroke:#263238;stroke-linecap:round;stroke-linejoin:round"></path><path d="M236.55,281.34s3.59,9.73,3.08,17.67" style="fill:none;stroke:#263238;stroke-linecap:round;stroke-linejoin:round"></path><path d="M235.27,282.36s0,14.6-1.79,23.82" style="fill:none;stroke:#263238;stroke-linecap:round;stroke-linejoin:round"></path><path d="M213.75,284.67s15.12-11.53,25.37-5.9" style="fill:none;stroke:#263238;stroke-linecap:round;stroke-linejoin:round"></path><path d="M168.07,394.65a21.21,21.21,0,0,0-2.34,4.7,7.63,7.63,0,0,1,6.25,2.42c.52-1.29,1-2.81,1.46-4.39A5.94,5.94,0,0,0,168.07,394.65Z" style="fill:#263238;stroke:#263238;stroke-linecap:round;stroke-linejoin:round"></path><path d="M221.82,419.46a38.43,38.43,0,0,0,1.83-5.31,10.19,10.19,0,0,0-4.57-2,34.92,34.92,0,0,0-2.34,4.37A18.15,18.15,0,0,1,221.82,419.46Z" style="fill:#263238;stroke:#263238;stroke-linecap:round;stroke-linejoin:round"></path><path d="M218.43,76.29c-3.37,7-1.16,16.94,5.89,22.75l10.61,8.75" style="fill:none;stroke:#fff;stroke-linecap:round;stroke-linejoin:round;stroke-width:2px"></path><path d="M230.64,68.27a16.06,16.06,0,0,0-8,2.93" style="fill:none;stroke:#fff;stroke-linecap:round;stroke-linejoin:round;stroke-width:2px"></path><path d="M253,73.33s2.53-7.16,14.75-8" style="fill:none;stroke:#fff;stroke-linecap:round;stroke-linejoin:round;stroke-width:2px"></path></g></svg>